<svg width="24" height="25" viewBox="0 0 24 25" fill="none" xmlns="http://www.w3.org/2000/svg">
<path d="M17.94 17.246C19.5155 15.6697 20.4005 13.5323 20.4005 11.3036C20.4005 9.07499 19.5155 6.93755 17.94 5.36124C17.16 4.58114 16.2339 3.96232 15.2147 3.54013C14.1956 3.11794 13.1032 2.90063 12 2.90063C10.8968 2.90063 9.80446 3.11794 8.78527 3.54013C7.76608 3.96232 6.84003 4.58114 6.06001 5.36124C4.48452 6.93755 3.59949 9.07499 3.59949 11.3036C3.59949 13.5323 4.48452 15.6697 6.06001 17.246L7.88521 19.0448L10.3368 21.4268L10.4964 21.5684C11.4264 22.322 12.7884 22.274 13.6644 21.4268L16.5864 18.5828L17.94 17.246ZM12 14.9C11.0452 14.9 10.1296 14.5208 9.45442 13.8456C8.77929 13.1705 8.40001 12.2548 8.40001 11.3C8.40001 10.3453 8.77929 9.42959 9.45442 8.75446C10.1296 8.07933 11.0452 7.70004 12 7.70004C12.9548 7.70004 13.8705 8.07933 14.5456 8.75446C15.2207 9.42959 15.6 10.3453 15.6 11.3C15.6 12.2548 15.2207 13.1705 14.5456 13.8456C13.8705 14.5208 12.9548 14.9 12 14.9Z" fill="black"/>
</svg>
