<svg width="272" height="394" viewBox="0 0 272 394" fill="none" xmlns="http://www.w3.org/2000/svg">
<path d="M251.25 128.343C265.489 159.753 272.213 195.809 271.406 236.52C270.6 277.232 262.452 313.074 246.977 344.047L251.25 128.343Z" fill="black" fill-opacity="0.36"/>
<path d="M196.924 56.4047C202.7 61.2884 208.176 66.4593 213.346 71.9254L206.87 398.784C201.488 404.02 195.813 408.955 189.847 413.593L196.924 56.4047Z" fill="black" fill-opacity="0.36"/>
<path d="M-213.425 226.914C-212.485 179.469 -201.486 138.739 -180.425 104.73C-159.564 70.5129 -130.705 44.3991 -93.855 26.3879C-57.2084 8.37266 -14.6325 -0.151997 33.8705 0.80873C58.5134 1.29696 81.5821 4.22265 103.078 9.56856L101.791 74.5183L140.805 75.2912L141.849 22.5709C147.503 25.007 153.026 27.6423 158.415 30.4862L155.409 182.246C154.719 181.313 154.008 180.39 153.271 179.483C141.126 164.78 124.426 153.552 103.174 145.797C81.9252 137.839 57.6439 133.589 30.3354 133.048C3.02657 132.507 -21.4036 135.792 -42.9516 142.902C-64.4942 149.809 -81.6254 160.367 -94.3431 174.577C-107.061 188.789 -113.632 206.689 -114.059 228.274C-114.491 250.061 -108.64 268.511 -96.5035 283.622C-84.3626 298.53 -67.668 309.966 -46.4191 317.924C-25.1656 325.679 -0.882725 329.828 26.4261 330.369C53.7346 330.91 78.1632 327.726 99.707 320.819C121.254 313.708 138.389 302.943 151.111 288.528C151.883 287.626 152.631 286.71 153.357 285.781L150.343 437.923C144.846 440.551 139.222 442.966 133.477 445.176L134.962 370.199L95.9486 369.426L94.2208 456.632C72.5301 461.123 49.3635 463.132 24.7207 462.644C-23.7822 461.683 -65.9872 451.479 -101.891 432.026C-138 412.57 -165.803 385.434 -185.297 350.621C-204.991 315.6 -214.365 274.36 -213.425 226.914Z" fill="black" fill-opacity="0.36"/>
</svg>
