<svg width="43" height="43" viewBox="0 0 43 43" fill="none" xmlns="http://www.w3.org/2000/svg">
<path d="M21.5 12.5416C11.61 12.5416 3.58337 16.555 3.58337 21.5C3.58337 25.5133 8.85087 28.8995 16.125 30.0462V33.6654C16.125 34.4716 17.0925 34.8658 17.648 34.2925L22.6467 29.2937C23.005 28.9354 23.005 28.38 22.6467 28.0216L17.648 23.0229C17.5217 22.8991 17.3615 22.8154 17.1878 22.7825C17.014 22.7495 16.8344 22.7687 16.6715 22.8377C16.5086 22.9067 16.3698 23.0223 16.2726 23.1701C16.1753 23.3178 16.124 23.491 16.125 23.6679V26.3912C10.4813 25.3879 7.16671 22.987 7.16671 21.5C7.16671 19.6008 12.6134 16.125 21.5 16.125C30.3867 16.125 35.8334 19.6008 35.8334 21.5C35.8334 22.6825 33.6834 24.51 29.885 25.6925C29.1505 25.9254 28.6667 26.6062 28.6667 27.3766C28.6667 28.577 29.8313 29.455 30.96 29.0966C36.0305 27.52 39.4167 24.707 39.4167 21.5C39.4167 16.555 31.39 12.5416 21.5 12.5416Z" fill="#333333"/>
</svg>
