<svg width="24" height="24" viewBox="0 0 24 24" fill="none" xmlns="http://www.w3.org/2000/svg">
<path d="M15.7125 19.0885C14.5676 19.6898 13.2932 20.0026 12 20C7.5815 20 4 16.4185 4 12C4 7.5815 7.5815 4 12 4C16.4185 4 20 7.5815 20 12C20 12.0833 19.9987 12.1667 19.996 12.25H20.9965C20.9988 12.1667 21 12.0833 21 12C21 7.0295 16.9705 3 12 3C7.0295 3 3 7.0295 3 12C3 16.9705 7.0295 21 12 21C13.4598 21.0027 14.8981 20.6482 16.1895 19.9675L15.7125 19.0885Z" fill="white"/>
<path d="M6.87151 11.675C6.81151 12.044 7.06201 12.3975 7.40351 12.6165C7.76051 12.845 8.26951 12.97 8.86851 12.8815C9.13617 12.8451 9.39298 12.752 9.6218 12.6084C9.85063 12.4648 10.0462 12.2741 10.1955 12.049C10.4475 11.667 10.551 11.2025 10.4355 10.858C10.4221 10.8182 10.3989 10.7825 10.368 10.754C10.3371 10.7256 10.2996 10.7053 10.2588 10.6952C10.2181 10.6851 10.1754 10.6854 10.1348 10.6961C10.0942 10.7069 10.057 10.7276 10.0265 10.7565C9.12851 11.6085 8.11451 11.818 7.20551 11.4805C7.17083 11.4676 7.13372 11.4626 7.09686 11.4658C7.06 11.469 7.02431 11.4803 6.99235 11.499C6.9604 11.5176 6.93299 11.5431 6.91209 11.5737C6.89119 11.6042 6.87734 11.6385 6.87151 11.675ZM16.9095 11.675C16.969 12.044 16.7185 12.3975 16.377 12.6165C16.02 12.845 15.5115 12.97 14.912 12.8815C14.6444 12.845 14.3877 12.7519 14.159 12.6083C13.9303 12.4648 13.7348 12.2741 13.5855 12.049C13.3335 11.667 13.2295 11.2025 13.3455 10.858C13.3589 10.8182 13.3821 10.7825 13.413 10.754C13.4439 10.7256 13.4815 10.7053 13.5222 10.6952C13.563 10.6851 13.6056 10.6854 13.6462 10.6961C13.6868 10.7069 13.7241 10.7276 13.7545 10.7565C14.6525 11.6085 15.6665 11.818 16.5755 11.4805C16.6102 11.4676 16.6473 11.4626 16.6842 11.4658C16.721 11.469 16.7567 11.4803 16.7887 11.499C16.8206 11.5176 16.848 11.5431 16.8689 11.5737C16.8898 11.6042 16.9037 11.6385 16.9095 11.675ZM20 16C20 16.5305 19.7893 17.0392 19.4142 17.4142C19.0392 17.7893 18.5304 18 18 18C17.4696 18 16.9609 17.7893 16.5858 17.4142C16.2107 17.0392 16 16.5305 16 16C16 14.25 18 12.5 18 12.5C18 12.5 20 14.25 20 16ZM10.4 16.8C11.2 15.7335 12.8 15.7335 13.6 16.8C13.6796 16.9061 13.798 16.9762 13.9293 16.995C14.0606 17.0138 14.1939 16.9796 14.3 16.9C14.4061 16.8205 14.4762 16.702 14.495 16.5707C14.5137 16.4395 14.4796 16.3061 14.4 16.2C13.2 14.6 10.8 14.6 9.60001 16.2C9.52045 16.3061 9.48629 16.4395 9.50504 16.5707C9.52379 16.702 9.59393 16.8205 9.70001 16.9C9.8061 16.9796 9.93945 17.0138 10.0707 16.995C10.202 16.9762 10.3204 16.9061 10.4 16.8Z" fill="white"/>
</svg>
