<svg width="32" height="32" viewBox="0 0 32 32" fill="none" xmlns="http://www.w3.org/2000/svg">
<path d="M28.0002 2.66663H4.00016C3.29292 2.66663 2.61464 2.94758 2.11454 3.44767C1.61445 3.94777 1.3335 4.62605 1.3335 5.33329V21.3333C1.3335 22.0405 1.61445 22.7188 2.11454 23.2189C2.61464 23.719 3.29292 24 4.00016 24H13.3335V26.6666H10.6668V29.3333H21.3335V26.6666H18.6668V24H28.0002C28.7074 24 29.3857 23.719 29.8858 23.2189C30.3859 22.7188 30.6668 22.0405 30.6668 21.3333V5.33329C30.6668 4.62605 30.3859 3.94777 29.8858 3.44767C29.3857 2.94758 28.7074 2.66663 28.0002 2.66663ZM28.0002 12H18.6668V14.6666H28.0002V21.3333H4.00016V14.6666H10.6668V18.6666L16.0002 13.3333L10.6668 7.99996V12H4.00016V5.33329H28.0002V12Z" fill="#4C4C4C"/>
</svg>
