<svg width="32" height="32" viewBox="0 0 32 32" fill="none" xmlns="http://www.w3.org/2000/svg">
<path d="M8 29.3333C10.2091 29.3333 12 27.5424 12 25.3333C12 23.1241 10.2091 21.3333 8 21.3333C5.79086 21.3333 4 23.1241 4 25.3333C4 27.5424 5.79086 29.3333 8 29.3333Z" stroke="#4C4C4C" stroke-width="2" stroke-linecap="round" stroke-linejoin="round"/>
<path d="M12 25.3333H23.3333C24.571 25.3333 25.758 24.8416 26.6332 23.9665C27.5083 23.0913 28 21.9043 28 20.6666C28 19.4289 27.5083 18.242 26.6332 17.3668C25.758 16.4916 24.571 16 23.3333 16H8.66667C7.42899 16 6.24201 15.5083 5.36684 14.6331C4.49167 13.758 4 12.571 4 11.3333C4 10.0956 4.49167 8.90863 5.36684 8.03346C6.24201 7.15829 7.42899 6.66663 8.66667 6.66663H20" stroke="#4C4C4C" stroke-width="2" stroke-linecap="round" stroke-linejoin="round"/>
<path d="M24 10.6666C26.2091 10.6666 28 8.87577 28 6.66663C28 4.45749 26.2091 2.66663 24 2.66663C21.7909 2.66663 20 4.45749 20 6.66663C20 8.87577 21.7909 10.6666 24 10.6666Z" stroke="#4C4C4C" stroke-width="2" stroke-linecap="round" stroke-linejoin="round"/>
</svg>
