<svg width="32" height="32" viewBox="0 0 32 32" fill="none" xmlns="http://www.w3.org/2000/svg">
<path d="M13.333 2.67871C10.0263 2.72671 8.15301 2.97204 6.89567 4.22938C5.33301 5.79071 5.33301 8.30538 5.33301 13.3334V16C5.33301 21.028 5.33301 23.5427 6.89567 25.104C8.45834 26.6654 10.9717 26.6667 15.9997 26.6667C21.0277 26.6667 23.5423 26.6667 25.1037 25.104C26.665 23.5414 26.6663 21.028 26.6663 16V13.3334C26.6663 8.30538 26.6663 5.79071 25.1037 4.22938C23.8463 2.97204 21.973 2.72671 18.6663 2.67871" stroke="#4C4C4C" stroke-width="1.5" stroke-linecap="round"/>
<path d="M21.3332 17.3333H26.6665L28.7998 15.7333C28.9654 15.6091 29.0998 15.4481 29.1924 15.263C29.285 15.0778 29.3332 14.8737 29.3332 14.6667V13.3333C29.3332 12.9797 29.1927 12.6406 28.9426 12.3905C28.6926 12.1405 28.3535 12 27.9998 12H26.6665M15.9998 17.3333H5.33317L3.19984 15.7333C3.03424 15.6091 2.89984 15.4481 2.80727 15.263C2.7147 15.0778 2.6665 14.8737 2.6665 14.6667V13.3333C2.6665 12.9797 2.80698 12.6406 3.05703 12.3905C3.30708 12.1405 3.64622 12 3.99984 12H5.33317M20.6665 21.3333H22.6665M9.33317 21.3333H11.3332M7.99984 26V28C7.99984 28.3536 8.14031 28.6928 8.39036 28.9428C8.64041 29.1929 8.97955 29.3333 9.33317 29.3333H11.3332C11.6868 29.3333 12.0259 29.1929 12.276 28.9428C12.526 28.6928 12.6665 28.3536 12.6665 28V26.6667M23.9998 26V28C23.9998 28.3536 23.8594 28.6928 23.6093 28.9428C23.3593 29.1929 23.0201 29.3333 22.6665 29.3333H20.6665C20.3129 29.3333 19.9737 29.1929 19.7237 28.9428C19.4736 28.6928 19.3332 28.3536 19.3332 28V26.6667" stroke="#4C4C4C" stroke-width="1.5" stroke-linecap="round" stroke-linejoin="round"/>
<path d="M6 6.66675H11M26 6.66675H16" stroke="#4C4C4C" stroke-width="1.5" stroke-linecap="round"/>
</svg>
